<svg width="16" height="11" viewBox="0 0 16 11" fill="none" xmlns="http://www.w3.org/2000/svg">
<path d="M14.5 0H1.5C0.671562 0 0 0.615599 0 1.375V9.625C0 10.3844 0.671562 11 1.5 11H14.5C15.3284 11 16 10.3844 16 9.625V1.375C16 0.615599 15.3284 0 14.5 0ZM14.5 1.375V2.54389C13.7993 3.06694 12.6823 3.88025 10.2942 5.59439C9.76788 5.97386 8.72538 6.88551 8 6.87489C7.27475 6.88563 6.23191 5.97372 5.70584 5.59439C3.31813 3.88051 2.20078 3.06702 1.5 2.54389V1.375H14.5ZM1.5 9.625V4.30828C2.21606 4.83109 3.23153 5.56474 4.77931 6.67574C5.46234 7.16859 6.6585 8.25659 8 8.24997C9.33491 8.25659 10.5159 7.18438 11.2204 6.67597C12.7682 5.565 13.7839 4.83115 14.5 4.3083V9.625H1.5Z" fill="#30BE9C"/>
</svg>
