<svg width="194" height="225" viewBox="0 0 194 225" fill="none" xmlns="http://www.w3.org/2000/svg">
<path d="M57 0C-18.6814 0 -80 61.3186 -80 137C-80 212.681 -18.6814 274 57 274C132.681 274 194 212.681 194 137C194 61.3186 132.681 0 57 0ZM108.093 172.907L97.0449 186.718C96.3198 187.624 95.4233 188.379 94.4066 188.939C93.3898 189.499 92.2727 189.853 91.119 189.982C89.9653 190.11 88.7976 190.01 87.6827 189.686C86.5678 189.363 85.5274 188.824 84.621 188.099L47.6089 160.633C45.0228 158.562 42.9353 155.936 41.501 152.95C40.0667 149.964 39.3222 146.693 39.3226 143.38V57.4516C39.3226 55.1074 40.2538 52.8593 41.9114 51.2017C43.569 49.5441 45.8171 48.6129 48.1613 48.6129H65.8387C68.1829 48.6129 70.431 49.5441 72.0886 51.2017C73.7462 52.8593 74.6774 55.1074 74.6774 57.4516V137L106.718 160.478C107.625 161.203 108.38 162.1 108.94 163.118C109.5 164.135 109.854 165.253 109.981 166.407C110.109 167.562 110.008 168.73 109.684 169.845C109.36 170.961 108.82 172.001 108.093 172.907Z" fill="#30BE9C"/>
</svg>
